---
layout: anime

title: Towa no Quon
image: https://i.imgur.com/oQeW2G2.jpg
mal: 10294
anidb: 8184
r720: false
r1080: true

desc: >-
  I watched this a few years back and remember it being pretty good. Since there doesn't seem to be any bloated releases yet, here goes.
  <br><br>
  Video and audio source is from philosophy-raws. Subtitles are from Doki, though I've made a few changes. I modified the ending karaoke and <s>obliterated comic sans</s> changed some fonts.

patches: true
patchinfo: Looks like I totally forgot the subtitles in episode 6. Apply the patch for the subs.

status: Complete
groups: philosophy-raws, Doki
vidinfo: .mkv, h264 10-bit

size1080: ~4 GB / Movie @ 1080p (1920x1080) 10bit [philosophy-raws]
audio1080a: English 5.1ch FLAC (Main Dialogue) [philosophy-raws]
audio1080b: Japanese 5.1ch FLAC (Main Dialogue) [philosophy-raws]
subtitle1: English Signs/Songs (.ass) [(Modified) Doki]
subtitle2: English Dialogue (.ass) [(Modified) Doki]

nyaa1080: https://nyaa.si/view/1030443
anidex1080: https://anidex.info/torrent/141035
at1080: https://animetosho.org/view/cyc-towa-no-quon-bd-1080p-hi10-x264.n1030443
ant1080: https://animetorrents.me/torrent-details.php?torid=35649
ab1080: https://animebytes.tv/torrents.php?id=9891&torrentid=363690

patch: https://mega.nz/file/WqoQCDrJ#siPEFucTqMFLMzqHvDp7mHeACdD3N1_kMe1N31sYVSE

github: https://github.com/cyc-anime/Towa-no-Quon
---
General
Unique ID                                : 234345344434514941869359635131227797358 (0xB04D4588B8145311A8A142A83029776E)
Complete name                            :  [CyC] Towa no Quon 01 (BD 1080p Hi10 x264 FLAC) [Dual-Audio] [4C491600].mkv
Format                                   : Matroska
Format version                           : Version 4 / Version 2
File size                                : 4.22 GiB
Duration                                 : 47 min 49 s
Overall bit rate mode                    : Variable
Overall bit rate                         : 12.6 Mb/s
Movie name                               : Ephemeral Petals
Encoded date                             : UTC 2018-04-23 23:17:22
Writing application                      : mkvmerge v9.7.1 ('Pandemonium') 64bit
Writing library                          : libebml v1.3.4 + libmatroska v1.4.5
Attachments                              : expressway rg.ttf / KozGoPro-Heavy.otf / Cartoon_Regular.ttf / CRAYA.TTF / erasdus0.ttf / Halo3.ttf / ITCKRIST.TTF / NITEMARE.TTF / Vesta-Bold.otf / arial.ttf / ARLRDBD.TTF / AVGARDNEclipse.ttf

Video
ID                                       : 1
Format                                   : AVC
Format/Info                              : Advanced Video Codec
Format profile                           : High 10@L5
Format settings                          : CABAC / 8 Ref Frames
Format settings, CABAC                   : Yes
Format settings, RefFrames               : 8 frames
Codec ID                                 : V_MPEG4/ISO/AVC
Duration                                 : 47 min 49 s
Bit rate                                 : 5 134 kb/s
Width                                    : 1 920 pixels
Height                                   : 1 080 pixels
Display aspect ratio                     : 16:9
Frame rate mode                          : Constant
Frame rate                               : 23.976 (24000/1001) FPS
Color space                              : YUV
Chroma subsampling                       : 4:2:0
Bit depth                                : 10 bits
Scan type                                : Progressive
Bits/(Pixel*Frame)                       : 0.103
Stream size                              : 1.72 GiB (41%)
Writing library                          : x264 core 129 r2245+704+35 dbbd7a1 tMod [10-bit@4:2:0 X86_64]
Encoding settings                        : cabac=1 / ref=8 / deblock=1:0:0 / analyse=0x3:0x133 / me=umh / subme=10 / psy=1 / fade_compensate=0.00 / psy_rd=0.40:0.16 / mixed_ref=1 / me_range=32 / chroma_me=1 / trellis=2 / 8x8dct=1 / cqm=0 / deadzone=21,11 / fast_pskip=0 / chroma_qp_offset=-3 / threads=24 / lookahead_threads=4 / sliced_threads=0 / nr=0 / decimate=0 / interlaced=0 / bluray_compat=0 / constrained_intra=0 / fgo=3 / bframes=12 / b_pyramid=2 / b_adapt=2 / b_bias=0 / direct=3 / weightb=1 / open_gop=0 / weightp=2 / keyint=infinite / keyint_min=1 / scenecut=40 / intra_refresh=0 / rc_lookahead=72 / rc=crf / mbtree=1 / crf=17.0000 / qcomp=0.81 / qpmin=0 / qpmax=81 / qpstep=4 / ip_ratio=1.40 / aq=3:0.81
Language                                 : Japanese
Default                                  : Yes
Forced                                   : No

Audio #1
ID                                       : 2
Format                                   : FLAC
Format/Info                              : Free Lossless Audio Codec
Codec ID                                 : A_FLAC
Duration                                 : 47 min 29 s
Bit rate mode                            : Variable
Bit rate                                 : 3 734 kb/s
Channel(s)                               : 6 channels
Channel positions                        : Front: L C R, Side: L R, LFE
Sampling rate                            : 48.0 kHz
Frame rate                               : 11.719 FPS (4096 SPF)
Bit depth                                : 24 bits
Delay relative to video                  : 1 s 1 ms
Stream size                              : 1.24 GiB (29%)
Writing library                          : libFLAC 1.2.1 (UTC 2007-09-17)
Language                                 : English
Default                                  : Yes
Forced                                   : No

Audio #2
ID                                       : 3
Format                                   : FLAC
Format/Info                              : Free Lossless Audio Codec
Codec ID                                 : A_FLAC
Duration                                 : 47 min 49 s
Bit rate mode                            : Variable
Bit rate                                 : 3 787 kb/s
Channel(s)                               : 6 channels
Channel positions                        : Front: L C R, Side: L R, LFE
Sampling rate                            : 48.0 kHz
Frame rate                               : 11.719 FPS (4096 SPF)
Bit depth                                : 24 bits
Stream size                              : 1.27 GiB (30%)
Writing library                          : libFLAC 1.2.1 (UTC 2007-09-17)
Language                                 : Japanese
Default                                  : No
Forced                                   : No

Text #1
ID                                       : 4
Format                                   : ASS
Codec ID                                 : S_TEXT/ASS
Codec ID/Info                            : Advanced Sub Station Alpha
Duration                                 : 40 min 30 s
Bit rate                                 : 155 b/s
Count of elements                        : 113
Compression mode                         : Lossless
Stream size                              : 46.3 KiB (0%)
Title                                    : (Modified) Doki Signs/Songs
Language                                 : English
Default                                  : Yes
Forced                                   : Yes

Text #2
ID                                       : 5
Format                                   : ASS
Codec ID                                 : S_TEXT/ASS
Codec ID/Info                            : Advanced Sub Station Alpha
Duration                                 : 47 min 22 s
Bit rate                                 : 199 b/s
Count of elements                        : 604
Compression mode                         : Lossless
Stream size                              : 69.3 KiB (0%)
Title                                    : (Modified) Doki Full Subtitles
Language                                 : Japanese
Default                                  : No
Forced                                   : No

Menu
00:00:00.000                             : en:Epilogue
00:06:52.750                             : en:Part A
00:15:51.400                             : en:Part B
00:28:04.400                             : en:Part C
00:42:04.750                             : en:ED
00:46:58.500                             : en:Preview